<svg xmlns="http://www.w3.org/2000/svg" xmlns:xlink="http://www.w3.org/1999/xlink" version="1.1" width="507.177" height="507.177" style="" xml:space="preserve"><rect id="backgroundrect" width="100%" height="100%" x="0" y="0" fill="none" stroke="none"/>
















<g class="currentLayer" style=""><title>Layer 1</title><g id="svg_1" class="" fill="#ffffff" fill-opacity="1">
	<path d="M382.237,420.524c11.278,0,24.519-7.294,29.342-17.236l93.815-177.539c5.615-10.802-2.548-17.239-17.236-17.239H393.42   v-42.421c0-14.641-11.91-26.551-26.551-26.551H134.943l-17.207-45.167c-1.791-4.69-6.289-7.793-11.313-7.793H12.335   c-3.218,0-6.312,1.283-8.588,3.57c-2.27,2.288-3.535,5.379-3.517,8.606l0.23,67.335L0,394.049C0,408.69,11.913,420.6,26.554,420.6    M369.209,208.516H162.634c-9.522,0-18.527,7.696-23.291,17.239L54.994,396.39H26.554c-1.289,0-2.344-1.052-2.344-2.341V166.024   l-0.012-55.23h73.884l17.209,45.164c1.791,4.69,6.286,7.796,11.31,7.796H366.87c1.288,0,2.34,1.052,2.34,2.341V208.516z" id="svg_2" fill="#ffffff" fill-opacity="1"/>
</g><g id="svg_3">
</g><g id="svg_4">
</g><g id="svg_5">
</g><g id="svg_6">
</g><g id="svg_7">
</g><g id="svg_8">
</g><g id="svg_9">
</g><g id="svg_10">
</g><g id="svg_11">
</g><g id="svg_12">
</g><g id="svg_13">
</g><g id="svg_14">
</g><g id="svg_15">
</g><g id="svg_16">
</g><g id="svg_17">
</g></g></svg>